<?xml version="1.0" standalone="no"?><!DOCTYPE svg PUBLIC "-//W3C//DTD SVG 1.1//EN" "http://www.w3.org/Graphics/SVG/1.1/DTD/svg11.dtd"><svg t="1490424197798" class="icon" style="" viewBox="0 0 1024 1024" version="1.1" xmlns="http://www.w3.org/2000/svg" p-id="3089" xmlns:xlink="http://www.w3.org/1999/xlink" width="200" height="200"><defs><style type="text/css"></style></defs><path d="M611.84 342.4c0-7.04-5.76-12.16-12.16-12.16h-78.08c-7.04 0-12.16 5.76-12.16 12.16v33.92h103.04v-33.92zM611.84 425.6v-30.72h-103.04v43.52h90.88c6.4 0 12.16-5.76 12.16-12.8z" fill="#2bb8aa" p-id="3090"></path><path d="M764.16 234.88h-500.48c-7.04 0-12.8 5.76-12.8 12.8V620.8c0 4.48 2.56 8.96 6.4 11.52l250.24 138.24c3.84 1.92 8.32 1.92 12.16 0l250.24-138.24c3.84-2.56 6.4-6.4 6.4-11.52v-373.12c0.64-7.04-5.12-12.8-12.16-12.8zM409.6 306.56l16 58.24h-51.2l-16-58.24h51.2z m258.56 308.48h-183.04c-34.56 0-50.56-13.44-58.88-26.24-3.2 10.24-7.04 19.2-12.16 26.88h-53.76c12.16-19.84 20.48-42.24 20.48-67.84V414.72c0-6.4-5.76-12.16-12.16-12.16H358.4V384h50.56c12.16 0 21.76 10.24 21.76 21.76v151.68c7.04 22.4 23.04 39.68 56.96 39.68h180.48v17.92z m-51.84-39.04c-29.44-35.84-54.4-74.88-75.52-119.04h-32v88.32c0 7.04 5.76 12.16 12.16 12.16h27.52V576H480c-12.16 0-21.76-9.6-21.76-21.76V332.8c0-12.16 9.6-21.76 21.76-21.76h160c12.16 0 21.76 9.6 21.76 21.76v102.4c0 12.16-9.6 21.76-21.76 21.76h-46.72c7.04 13.44 13.44 26.24 20.48 38.4 3.2-8.32 6.4-16.64 8.32-25.6h45.44c-7.04 23.68-15.36 48.64-26.24 69.76 8.32 12.16 17.28 23.68 26.88 36.48h-51.84z" fill="#2bb8aa" p-id="3091"></path></svg>